<svg width="150.000000" height="150.000000" viewBox="0 0 150 150" fill="none" xmlns="http://www.w3.org/2000/svg" xmlns:xlink="http://www.w3.org/1999/xlink">
	<desc>
			Created with Pixso.
	</desc>
	<defs>
		<clipPath id="clip736_5475">
			<rect id="fi-rs-check" rx="-0.500000" width="99.000000" height="99.000000" transform="translate(25.500000 25.500000)" fill="white" fill-opacity="0"/>
		</clipPath>
	</defs>
	<circle id="Ellipse 34" cx="75.000000" cy="75.000000" r="75.000000" fill="#0BA42D" fill-opacity="1.000000"/>
	<circle id="Ellipse 34" cx="75.000000" cy="75.000000" r="72.000000" stroke="#FFFFFF" stroke-opacity="1.000000" stroke-width="6.000000" stroke-dasharray="12 12"/>
	<rect id="fi-rs-check" rx="-0.500000" width="99.000000" height="99.000000" transform="translate(25.500000 25.500000)" fill="#FFFFFF" fill-opacity="0"/>
	<g clip-path="url(#clip736_5475)">
		<path id="Vector" d="M57.5 110.54C55.86 110.54 54.23 110.22 52.71 109.59C51.2 108.96 49.82 108.04 48.66 106.88L25.35 83.58L31.25 77.69L54.55 100.99C55.33 101.77 56.39 102.21 57.5 102.21C58.6 102.21 59.66 101.77 60.44 100.99L118.75 42.69L124.64 48.58L66.33 106.88C65.17 108.04 63.8 108.96 62.28 109.59C60.76 110.22 59.14 110.54 57.5 110.54Z" fill="#FFFFFF" fill-opacity="1.000000" fill-rule="nonzero"/>
	</g>
</svg>
