<svg width="25.000000" height="25.000000" viewBox="0 0 25 25" fill="none" xmlns="http://www.w3.org/2000/svg" xmlns:xlink="http://www.w3.org/1999/xlink">
	<desc>
			Created with Pixso.
	</desc>
	<defs>
		<clipPath id="clip7_3838">
			<rect id="fi-rs-school-bus" rx="-0.500000" width="24.000000" height="24.000000" transform="translate(0.500000 0.500000)" fill="white" fill-opacity="0"/>
		</clipPath>
	</defs>
	<rect id="fi-rs-school-bus" rx="-0.500000" width="24.000000" height="24.000000" transform="translate(0.500000 0.500000)" fill="#FFFFFF" fill-opacity="0"/>
	<rect id="fi-rs-school-bus" rx="-0.500000" width="24.000000" height="24.000000" transform="translate(0.500000 0.500000)" fill="#FFFFFF" fill-opacity="0"/>
	<g clip-path="url(#clip7_3838)">
		<path id="Vector" d="M25 14.58C25 13.75 24.67 12.95 24.08 12.37C23.49 11.78 22.7 11.45 21.87 11.45L19.79 11.45L19.79 4.16C19.79 3.33 19.46 2.54 18.87 1.95C18.29 1.37 17.49 1.04 16.66 1.04L3.12 1.04C2.29 1.04 1.5 1.37 0.91 1.95C0.32 2.54 0 3.33 0 4.16L0 19.79L2.12 19.79C2.09 19.96 2.08 20.13 2.08 20.31C2.08 21.27 2.46 22.2 3.15 22.88C3.83 23.57 4.76 23.95 5.72 23.95C6.69 23.95 7.62 23.57 8.3 22.88C8.99 22.2 9.37 21.27 9.37 20.31C9.37 20.13 9.35 19.96 9.33 19.79L15.66 19.79C15.64 19.96 15.62 20.13 15.62 20.31C15.62 21.27 16 22.2 16.69 22.88C17.37 23.57 18.3 23.95 19.27 23.95C20.23 23.95 21.16 23.57 21.84 22.88C22.53 22.2 22.91 21.27 22.91 20.31C22.91 20.13 22.9 19.96 22.87 19.79L25 19.79L25 14.58ZM13.54 13.54L13.54 17.7L10.41 17.7L10.41 7.29L13.54 7.29L13.54 13.54ZM2.08 11.45L2.08 7.29L4.16 7.29L4.16 11.45L2.08 11.45ZM6.25 7.29L8.33 7.29L8.33 11.45L6.25 11.45L6.25 7.29ZM15.62 7.29L17.7 7.29L17.7 11.45L15.62 11.45L15.62 7.29ZM3.12 3.12L16.66 3.12C16.94 3.12 17.2 3.23 17.4 3.42C17.59 3.62 17.7 3.88 17.7 4.16L17.7 5.2L2.08 5.2L2.08 4.16C2.08 3.88 2.19 3.62 2.38 3.42C2.58 3.23 2.84 3.12 3.12 3.12ZM2.08 13.54L8.33 13.54L8.33 17.7L2.08 17.7L2.08 13.54ZM7.29 20.31C7.29 20.72 7.12 21.12 6.83 21.41C6.54 21.7 6.14 21.87 5.72 21.87C5.31 21.87 4.91 21.7 4.62 21.41C4.33 21.12 4.16 20.72 4.16 20.31C4.16 20.13 4.19 19.95 4.26 19.79L7.19 19.79C7.25 19.95 7.29 20.13 7.29 20.31ZM20.83 20.31C20.83 20.72 20.66 21.12 20.37 21.41C20.08 21.7 19.68 21.87 19.27 21.87C18.85 21.87 18.45 21.7 18.16 21.41C17.87 21.12 17.7 20.72 17.7 20.31C17.7 20.13 17.74 19.95 17.8 19.79L20.73 19.79C20.8 19.95 20.83 20.13 20.83 20.31ZM22.91 17.7L15.62 17.7L15.62 13.54L21.87 13.54C22.15 13.54 22.41 13.65 22.61 13.84C22.8 14.04 22.91 14.3 22.91 14.58L22.91 17.7Z" fill="#0BA42D" fill-opacity="1.000000" fill-rule="nonzero"/>
	</g>
</svg>
